<svg width="16" height="16" viewBox="0 0 16 16" fill="none" xmlns="http://www.w3.org/2000/svg">
<path d="M3.15159 16H12.8486C13.2502 16 13.5758 15.6744 13.5758 15.2727V7.0303C13.5758 6.62865 13.2502 6.30303 12.8486 6.30303H12.1213V4.12121C12.1213 1.84878 10.2725 0 8.00007 0C5.72764 0 3.87886 1.84878 3.87886 4.12121V6.30303H3.15159C2.74994 6.30303 2.42432 6.62865 2.42432 7.0303V15.2727C2.42432 15.6744 2.74994 16 3.15159 16ZM10.0598 10.6354L7.99915 12.696C7.85714 12.8381 7.67101 12.9091 7.48492 12.9091C7.29884 12.9091 7.11266 12.8381 6.97069 12.696L5.94039 11.6657C5.65636 11.3817 5.65636 10.9213 5.94039 10.6372C6.22436 10.3532 6.68487 10.3532 6.9689 10.6372L7.48497 11.1533L9.03135 9.60693C9.31532 9.32291 9.77583 9.32291 10.0599 9.60693C10.3438 9.89101 10.3438 10.3514 10.0598 10.6354ZM5.33341 4.12121C5.33341 2.65081 6.52967 1.45455 8.00007 1.45455C9.47047 1.45455 10.6667 2.65081 10.6667 4.12121V6.30303H5.33341V4.12121Z" fill="#00AE47"/>
</svg>
